<svg width="16" height="15" viewBox="0 0 16 15" fill="none" xmlns="http://www.w3.org/2000/svg">
<path d="M8.88113 6.65894L8.881 0.948358C8.88094 0.791217 8.81648 0.643017 8.69947 0.531075C8.58226 0.419196 8.42687 0.357544 8.26225 0.35773L7.73807 0.357792C7.57312 0.357668 7.41806 0.419382 7.30079 0.531323C7.18371 0.643079 7.11906 0.791093 7.11919 0.948544L7.11912 6.65894L1.13669 6.65913C0.971869 6.65888 0.816742 6.72066 0.699535 6.83254C0.582458 6.94429 0.51774 7.09237 0.518 7.24969L0.517805 7.75017C0.517806 8.076 0.795408 8.34099 1.13656 8.3408L7.11913 8.34086L7.11906 14.0514C7.11919 14.2087 7.18372 14.3569 7.30086 14.4687C7.418 14.5805 7.57319 14.6421 7.73794 14.6421L8.26219 14.642C8.42694 14.6422 8.5822 14.5804 8.69921 14.4687C8.81642 14.3569 8.88107 14.2087 8.88087 14.0515L8.881 8.34087L14.8634 8.34087C15.0283 8.34093 15.1834 8.27928 15.3005 8.16752L15.3006 8.1674C15.4177 8.05558 15.4823 7.9075 15.4823 7.75011L15.4823 7.24976C15.4823 7.09262 15.4177 6.94436 15.3006 6.83254C15.1835 6.72072 15.0282 6.65919 14.8635 6.65907L8.88113 6.65894Z" fill="#666666"/>
</svg>
