<svg width="17" height="19" viewBox="0 0 17 19" fill="none" xmlns="http://www.w3.org/2000/svg">
<path d="M16.5542 13.9441L14.1768 11.2926C13.3278 10.3456 11.8843 10.7244 11.5447 11.9554C11.29 12.8077 10.4409 13.2812 9.67676 13.0918C7.97862 12.6183 5.68613 10.1562 5.2616 8.16758C5.00688 7.31527 5.51632 6.36831 6.28048 6.08425C7.38427 5.70547 7.7239 4.09563 6.87483 3.14866L4.49744 0.497157C3.81818 -0.165719 2.7993 -0.165719 2.20495 0.497157L0.591722 2.29639C-1.02151 4.19032 0.761536 9.20924 4.75216 13.66C8.74278 18.1107 13.2428 20.1941 14.941 18.3001L16.5542 16.5009C17.1486 15.7433 17.1486 14.6069 16.5542 13.9441Z" fill="#26AAE1"/>
</svg>
